<?xml version="1.0" encoding="UTF-8" standalone="no"?>
<!DOCTYPE svg PUBLIC "-//W3C//DTD SVG 1.1//EN"
 "http://www.w3.org/Graphics/SVG/1.1/DTD/svg11.dtd">
<!-- Generated by graphviz version 2.40.1 (20161225.0304)
 -->
<!-- Title: dependencies Pages: 1 -->
<svg width="504pt" height="211pt"
 viewBox="0.00 0.00 504.00 211.00" xmlns="http://www.w3.org/2000/svg" xmlns:xlink="http://www.w3.org/1999/xlink">
<g id="graph0" class="graph" transform="scale(1 1) rotate(0) translate(4 207)">
<title>dependencies</title>
<polygon fill="#ffffff" stroke="transparent" points="-4,4 -4,-207 500,-207 500,4 -4,4"/>
<text text-anchor="start" x="227.0091" y="-42.4" font-family="sans-serif" font-weight="bold" font-size="14.00" fill="#000000">Legend</text>
<polygon fill="#ffffb3" stroke="transparent" points="14,-10 14,-30 34,-30 34,-10 14,-10"/>
<text text-anchor="start" x="37.629" y="-15.4" font-family="sans-serif" font-size="14.00" fill="#000000"> &#160;Declarations</text>
<polygon fill="#8dd3c7" stroke="transparent" points="127,-10 127,-30 147,-30 147,-10 127,-10"/>
<text text-anchor="start" x="150.7251" y="-15.4" font-family="sans-serif" font-size="14.00" fill="#000000"> &#160;Module</text>
<polygon fill="#80b1d3" stroke="transparent" points="213,-10 213,-30 233,-30 233,-10 213,-10"/>
<text text-anchor="start" x="236.7812" y="-15.4" font-family="sans-serif" font-size="14.00" fill="#000000"> &#160;Bootstrap</text>
<polygon fill="#fdb462" stroke="transparent" points="310,-10 310,-30 330,-30 330,-10 310,-10"/>
<text text-anchor="start" x="333.6732" y="-15.4" font-family="sans-serif" font-size="14.00" fill="#000000"> &#160;Providers</text>
<polygon fill="#fb8072" stroke="transparent" points="406,-10 406,-30 426,-30 426,-10 406,-10"/>
<text text-anchor="start" x="429.7258" y="-15.4" font-family="sans-serif" font-size="14.00" fill="#000000"> &#160;Exports</text>
<g id="clust1" class="cluster">
<title>cluster_SharedModule</title>
<polygon fill="none" stroke="#000000" stroke-dasharray="1,5" points="126,-70 126,-195 370,-195 370,-70 126,-70"/>
</g>
<g id="clust4" class="cluster">
<title>cluster_SharedModule_exports</title>
<polygon fill="none" stroke="#000000" points="134,-135 134,-187 362,-187 362,-135 134,-135"/>
</g>
<!-- ApiModule  -->
<g id="node1" class="node">
<title>ApiModule </title>
<polygon fill="#fb8072" stroke="#000000" points="354.047,-179 269.953,-179 269.953,-143 354.047,-143 354.047,-179"/>
<text text-anchor="middle" x="312" y="-156.8" font-family="Times,serif" font-size="14.00" fill="#000000">ApiModule </text>
</g>
<!-- MaterialModule  -->
<g id="node2" class="node">
<title>MaterialModule </title>
<polygon fill="#fb8072" stroke="#000000" points="252.4716,-179 141.5284,-179 141.5284,-143 252.4716,-143 252.4716,-179"/>
<text text-anchor="middle" x="197" y="-156.8" font-family="Times,serif" font-size="14.00" fill="#000000">MaterialModule </text>
</g>
<!-- SharedModule -->
<g id="node3" class="node">
<title>SharedModule</title>
<polygon fill="#8dd3c7" stroke="#000000" points="303.4231,-114 300.4231,-118 279.4231,-118 276.4231,-114 204.5769,-114 204.5769,-78 303.4231,-78 303.4231,-114"/>
<text text-anchor="middle" x="254" y="-91.8" font-family="Times,serif" font-size="14.00" fill="#000000">SharedModule</text>
</g>
<!-- SharedModule&#45;&gt;ApiModule  -->
<g id="edge1" class="edge">
<title>SharedModule&#45;&gt;ApiModule </title>
<path fill="none" stroke="#000000" stroke-dasharray="5,2" d="M286.5938,-114.1061C286.5938,-114.1061 286.5938,-132.991 286.5938,-132.991"/>
<polygon fill="#000000" stroke="#000000" points="283.0939,-132.9909 286.5938,-142.991 290.0939,-132.991 283.0939,-132.9909"/>
</g>
<!-- SharedModule&#45;&gt;MaterialModule  -->
<g id="edge2" class="edge">
<title>SharedModule&#45;&gt;MaterialModule </title>
<path fill="none" stroke="#000000" stroke-dasharray="5,2" d="M228.5121,-114.1061C228.5121,-114.1061 228.5121,-132.991 228.5121,-132.991"/>
<polygon fill="#000000" stroke="#000000" points="225.0122,-132.9909 228.5121,-142.991 232.0122,-132.991 225.0122,-132.9909"/>
</g>
</g>
</svg>
